0
SECTION
2
HEADER
9
$INSUNITS
70
4
9
$ACADVER
1
AC1014
9
$HANDSEED
5
FFFF
0
ENDSEC
0
SECTION
2
TABLES
0
TABLE
2
VPORT
5
8
100
AcDbSymbolTable
0
ENDTAB
0
TABLE
2
LTYPE
5
5
100
AcDbSymbolTable
0
LTYPE
5
14
100
AcDbSymbolTableRecord
100
AcDbLinetypeTableRecord
2
BYBLOCK
70
0
0
LTYPE
5
15
100
AcDbSymbolTableRecord
100
AcDbLinetypeTableRecord
2
BYLAYER
70
0
0
ENDTAB
0
TABLE
2
LAYER
5
2
100
AcDbSymbolTable
70
2
0
LAYER
5
50
100
AcDbSymbolTableRecord
100
AcDbLayerTableRecord
2
0
70
0
6
CONTINUOUS
0
ENDTAB
0
TABLE
2
STYLE
5
3
100
AcDbSymbolTable
70
1
0
STYLE
5
11
100
AcDbSymbolTableRecord
100
AcDbTextStyleTableRecord
2
STANDARD
70
0
0
ENDTAB
0
TABLE
2
VIEW
5
6
100
AcDbSymbolTable
70
0
0
ENDTAB
0
TABLE
2
UCS
5
7
100
AcDbSymbolTable
70
0
0
ENDTAB
0
TABLE
2
APPID
5
9
100
AcDbSymbolTable
70
2
0
APPID
5
12
100
AcDbSymbolTableRecord
100
AcDbRegAppTableRecord
2
ACAD
70
0
0
ENDTAB
0
TABLE
2
DIMSTYLE
5
A
100
AcDbSymbolTable
70
1
0
ENDTAB
0
TABLE
2
BLOCK_RECORD
5
1
100
AcDbSymbolTable
70
1
0
BLOCK_RECORD
5
1F
100
AcDbSymbolTableRecord
100
AcDbBlockTableRecord
2
*MODEL_SPACE
0
BLOCK_RECORD
5
1B
100
AcDbSymbolTableRecord
100
AcDbBlockTableRecord
2
*PAPER_SPACE
0
ENDTAB
0
ENDSEC
0
SECTION
2
BLOCKS
0
BLOCK
5
20
100
AcDbEntity
100
AcDbBlockBegin
2
*MODEL_SPACE
0
ENDBLK
5
21
100
AcDbEntity
100
AcDbBlockEnd
0
BLOCK
5
1C
100
AcDbEntity
100
AcDbBlockBegin
2
*PAPER_SPACE
0
ENDBLK
5
1D
100
AcDbEntity
100
AcDbBlockEnd
0
ENDSEC
0
SECTION
2
ENTITIES
0
LWPOLYLINE
5
100
100
AcDbEntity
8
0
100
AcDbPolyline
90
52
70
1
43
0.0
10
-12.270994995000002
20
1.6000000000000003
10
-12.270994995000002
20
0.500000000000003
42
0.41421356237309681
10
-11.770994995000002
20
0
10
-18.541989990000005
20
0
10
-18.541989990000005
20
43.17998
10
-12.270994995000002
20
43.17998
10
-12.270994995000002
20
42.87998000000001
10
-13.747692534681599
20
42.879980000000003
42
0.41421356237309503
10
-13.947692534681602
20
42.67998
10
-13.9476925346816
20
42.079979999999999
42
0.41421356237309503
10
-13.747692534681599
20
41.879980000000003
10
-12.270994995000002
20
41.879980000000003
10
-12.270994995000002
20
37.479979999999998
10
-13.747692534681599
20
37.479980000000005
42
0.41421356237309503
10
-13.947692534681602
20
37.279980000000002
10
-13.9476925346816
20
36.67998
42
0.41421356237309503
10
-13.747692534681599
20
36.479979999999998
10
-12.270994995000002
20
36.479979999999998
10
-12.270994995000002
20
36.17998
10
-6.2709949949999997
20
36.17998
10
-6.2709949949999997
20
36.479979999999998
10
-4.7942974553183602
20
36.479980000000005
42
0.41421356237309503
10
-4.59429745531836
20
36.67998
10
-4.59429745531836
20
37.279980000000002
42
0.41421356237309503
10
-4.7942974553183602
20
37.479979999999998
10
-6.2709949949999997
20
37.479979999999998
10
-6.2709949949999997
20
41.879980000000003
10
-4.7942974553183602
20
41.879980000000003
42
0.41421356237309503
10
-4.59429745531836
20
42.079979999999999
10
-4.59429745531836
20
42.67998
42
0.41421356237309503
10
-4.7942974553183602
20
42.87998000000001
10
-6.2709949949999997
20
42.87998000000001
10
-6.2709949949999997
20
43.17998
10
0
20
43.17998
10
0
20
0
10
-6.7709949950000006
20
0
42
0.41421356237309503
10
-6.2709949949999997
20
0.5
10
-6.2709949949999988
20
1.6000000000000003
42
0.41421356237309503
10
-6.670994995
20
1.9999999999999998
42
0.41421356237309503
10
-6.2709949949999997
20
2.3999999999999999
10
-6.2709949950000023
20
3.7999999999999998
42
0.41421356237309503
10
-6.670994995
20
4.2000000000000002
10
-7.8709949950000002
20
4.2000000000000011
42
0.41421356237309503
10
-8.270994994999997
20
3.7999999999999998
42
0.41421356237309503
10
-8.6709949949999992
20
4.2000000000000002
10
-9.8709949950000002
20
4.2000000000000028
42
0.41421356237309503
10
-10.270994995000002
20
3.7999999999999998
42
0.41421356237309503
10
-10.670994995000001
20
4.2000000000000002
10
-11.870994995000002
20
4.1999999999999984
42
0.41421356237309503
10
-12.270994995000002
20
3.7999999999999998
10
-12.270994995000002
20
2.3999999999999999
42
0.41421356237309503
10
-11.870994995000002
20
1.9999999999999993
42
0.41421356237309503
0
LWPOLYLINE
5
101
100
AcDbEntity
8
0
100
AcDbPolyline
90
32
70
1
43
0.0
10
-12.4880108301475
20
15.339567249957902
10
-11.770994995000002
20
15.339567249957902
10
-11.770994995000002
20
14.75
42
0.41421356237309503
10
-11.270994995000001
20
14.25
10
-10.9871936901582
20
14.25
42
-0.24539268395658576
10
-10.823063328828555
20
14.164285714285732
42
0.24539268395662106
10
-10.4127374255044
20
13.949999999999999
10
-8.1292525644955909
20
13.949999999999999
42
0.24539268395660604
10
-7.7189266611714444
20
14.164285714285702
42
-0.2453926839566298
10
-7.5547962998417804
20
14.25
10
-7.2709949949999997
20
14.25
42
0.41421356237309503
10
-6.7709949950000006
20
14.75
10
-6.7709949950000006
20
15.339567249957902
10
-6.0539791598525401
20
15.339567249957902
42
0.41421356237309503
10
-5.6539791598525397
20
15.739567249957902
10
-5.6539791598525397
20
16.246846643675099
42
0.41421356237309503
10
-6.0539791598525401
20
16.646846643675101
10
-6.7709949950000006
20
16.646846643675101
10
-6.7709949949999988
20
17.25
42
0.41421356237309503
10
-7.2709949949999997
20
17.75
10
-7.5547962998417804
20
17.749999999999993
42
-0.24539268395663166
10
-7.7189266611714524
20
17.835714285714296
42
0.24539268395660535
10
-8.1292525644955909
20
18.050000000000001
10
-10.4127374255044
20
18.050000000000001
42
0.24539268395662106
10
-10.823063328828555
20
17.835714285714271
42
-0.24539268395658576
10
-10.9871936901582
20
17.75
10
-11.270994995000001
20
17.75
42
0.41421356237309503
10
-11.770994995000002
20
17.25
10
-11.770994995000002
20
16.646846643675101
10
-12.4880108301475
20
16.646846643675101
42
0.41421356237309503
10
-12.8880108301475
20
16.246846643675099
10
-12.8880108301475
20
15.739567249957902
42
0.41421356237309503
0
LWPOLYLINE
5
102
100
AcDbEntity
8
0
100
AcDbPolyline
90
4
70
1
43
0.0
10
-13.020994995000002
20
8.5978510000000004
10
-13.020994995000002
20
12.597851000000002
10
-14.520994995000001
20
12.597851000000002
10
-14.520994995000001
20
8.5978510000000004
0
LWPOLYLINE
5
103
100
AcDbEntity
8
0
100
AcDbPolyline
90
4
70
1
43
0.0
10
-10.270994995000001
20
8.5978510000000004
10
-10.270994995000001
20
12.597851000000002
10
-11.770994995000002
20
12.597851000000002
10
-11.770994995000002
20
8.5978510000000004
0
LWPOLYLINE
5
104
100
AcDbEntity
8
0
100
AcDbPolyline
90
4
70
1
43
0.0
10
-5.5209949950000006
20
12.597851000000002
10
-5.5209949950000006
20
8.5978510000000004
10
-4.0209949950000006
20
8.5978510000000004
10
-4.0209949950000006
20
12.597851000000002
0
LWPOLYLINE
5
105
100
AcDbEntity
8
0
100
AcDbPolyline
90
4
70
1
43
0.0
10
-8.2709949950000006
20
12.597851000000002
10
-8.2709949950000006
20
8.5978510000000004
10
-6.7709949950000006
20
8.5978510000000004
10
-6.7709949950000006
20
12.597851000000002
0
LWPOLYLINE
5
106
100
AcDbEntity
8
0
100
AcDbPolyline
90
16
70
1
43
0.0
10
-9.5417056731186598
20
32.909269321881297
10
-14.000284316881402
20
28.450690678118704
42
0.19891236737966003
10
-14.058862960644001
20
28.309269321881303
10
-14.058862960644001
20
28.050690678118698
42
0.19891236737956214
10
-14.000284316881402
20
27.909269321881403
10
-9.5417056731186651
20
23.450690678118697
42
0.19891236737966519
10
-9.4002843168813506
20
23.392112034356
10
-9.1417056731186594
20
23.392112034356
42
0.19891236737966519
10
-9.0002843168813502
20
23.450690678118701
10
-4.5417056731186527
20
27.909269321881396
42
0.19891236737964327
10
-4.4831270293559697
20
28.050690678118698
10
-4.4831270293559697
20
28.309269321881303
42
0.19891236737974369
10
-4.5417056731186598
20
28.450690678118704
10
-9.0002843168813431
20
32.909269321881304
42
0.1989123673796723
10
-9.1417056731186594
20
32.967847965643998
10
-9.4002843168813506
20
32.967847965644005
42
0.19891236737966925
0
LWPOLYLINE
5
107
100
AcDbEntity
8
0
100
AcDbPolyline
90
6
70
1
43
0.0
10
-8.3808988938705493
20
32.781498695064101
10
-7.9903101888994312
20
33.17208740003521
42
0.41421356237306972
10
-7.9903101888994312
20
33.4549301125098
10
-8.0618423991710078
20
33.526462322781406
42
0.414213562373141
10
-8.3446851116456404
20
33.526462322781398
10
-8.7352738166167399
20
33.135873617810304
0
LWPOLYLINE
5
108
100
AcDbEntity
8
0
100
AcDbPolyline
90
6
70
1
43
0.0
10
-5.2493038605088804
20
26.710056338297605
10
-4.8587151555377703
20
26.3194676333265
42
0.41421356237311341
10
-4.5758724430631501
20
26.3194676333265
10
-4.5688013752512795
20
26.326538701138304
42
0.41421356237316631
10
-4.5688013752512902
20
26.609381413613001
10
-4.9593900802224002
20
26.999970118584102
0
LWPOLYLINE
5
109
100
AcDbEntity
8
0
100
AcDbPolyline
90
6
70
1
43
0.0
10
-8.0618423991710095
20
22.833497677218602
10
-8.0477667386890808
20
22.847573337700503
42
0.41421356237306284
10
-8.0477667386890914
20
23.1304160501751
10
-8.4383554436602104
20
23.521004755146301
10
-8.7352738166167399
20
23.2240863821897
10
-8.3446851116456351
20
22.833497677218595
42
0.41421356237311341
0
LWPOLYLINE
5
110
100
AcDbEntity
8
0
100
AcDbPolyline
90
6
70
1
43
0.0
10
-14.617477317781402
20
26.970827404171001
10
-14.603401657299502
20
26.9567517436891
42
0.41421356237309503
10
-14.320558944824899
20
26.9567517436891
10
-13.929970239853802
20
27.347340448660201
10
-14.226888612810299
20
27.644258821616702
10
-14.617477317781411
20
27.253670116645612
42
0.41421356237309503
0
LWPOLYLINE
5
111
100
AcDbEntity
8
0
100
AcDbPolyline
90
6
70
1
43
0.0
10
-14.030645164538402
20
26.383995250928002
10
-14.023574096726501
20
26.376924183116103
42
0.41421356237309276
10
-13.740731384251902
20
26.376924183116103
10
-13.3501426792808
20
26.767512888087204
10
-13.640056459567301
20
27.057426668373701
10
-14.030645164538411
20
26.666837963402614
42
0.41421356237309503
0
LWPOLYLINE
5
112
100
AcDbEntity
8
0
100
AcDbPolyline
90
6
70
1
43
0.0
10
-12.870990043392501
20
25.224340129782004
10
-12.863918975580599
20
25.217269061970203
42
0.41421356237309048
10
-12.581076263106002
20
25.217269061970203
10
-12.190487558134899
20
25.607857766941304
10
-12.4804013384213
20
25.897771547227801
10
-12.870990043392458
20
25.507182842256665
42
0.41421356237299156
0
LWPOLYLINE
5
113
100
AcDbEntity
8
0
100
AcDbPolyline
90
6
70
1
43
0.0
10
-11.7113349222465
20
24.064685008636104
10
-11.7042638544347
20
24.057613940824304
42
0.41421356237320539
10
-11.42142114196
20
24.057613940824304
10
-11.0308324369889
20
24.448202645795405
10
-11.320746217275399
20
24.738116426081799
10
-11.711334922246511
20
24.347527721110712
42
0.41421356237309043
0
LWPOLYLINE
5
114
100
AcDbEntity
8
0
100
AcDbPolyline
90
6
70
1
43
0.0
10
-9.8067161733832702
20
23.2240863821897
10
-10.1610910961295
20
23.5784613049359
10
-10.551679801100612
20
23.187872599964813
42
0.41421356237309737
10
-10.551679801100599
20
22.905029887490201
10
-10.480147590829009
20
22.833497677218592
42
0.41421356237309276
10
-10.197304878354402
20
22.833497677218602
0
LWPOLYLINE
5
115
100
AcDbEntity
8
0
100
AcDbPolyline
90
6
70
1
43
0.0
10
-10.451004876416
20
23.868375085222404
10
-10.740918656702402
20
24.158288865508904
10
-11.13150736167356
20
23.76770016053776
42
0.41421356237299389
10
-11.1315073616736
20
23.484857448063103
10
-11.124436293861709
20
23.477786380251292
42
0.41421356237309276
10
-10.841593581387102
20
23.477786380251299
0
LWPOLYLINE
5
116
100
AcDbEntity
8
0
100
AcDbPolyline
90
6
70
1
43
0.0
10
-11.6106599975619
20
25.0280302063683
10
-11.9005737778484
20
25.317943986654804
10
-12.291162482819511
20
24.927355281683713
42
0.41421356237310192
10
-12.2911624828195
20
24.644512569209098
10
-12.284091415007609
20
24.637441501397191
42
0.41421356237309276
10
-12.001248702533001
20
24.637441501397198
0
LWPOLYLINE
5
117
100
AcDbEntity
8
0
100
AcDbPolyline
90
6
70
1
43
0.0
10
-12.770315118707799
20
26.187685327514298
10
-13.060228898994302
20
26.477599107800703
10
-13.450817603965412
20
26.087010402829613
42
0.41421356237309964
10
-13.450817603965399
20
25.804167690355001
10
-13.44374653615356
20
25.79709662254324
42
0.41421356237319396
10
-13.160903823678902
20
25.797096622543201
0
LWPOLYLINE
5
118
100
AcDbEntity
8
0
100
AcDbPolyline
90
6
70
1
43
0.0
10
-4.6694762999359201
20
27.289883898870499
10
-4.2788875949648002
20
26.899295193899402
42
0.41421356237311341
10
-3.99604488249018
20
26.899295193899402
10
-3.9245126722185968
20
26.970827404170997
42
0.41421356237307777
10
-3.9245126722186003
20
27.253670116645601
10
-4.3151013771897198
20
27.644258821616702
0
LWPOLYLINE
5
119
100
AcDbEntity
8
0
100
AcDbPolyline
90
6
70
1
43
0.0
10
-7.475010245927991
20
23.420329830461601
10
-7.4679391781161204
20
23.4274008982735
42
0.41421356237307899
10
-7.4679391781161204
20
23.710243610748101
10
-7.8585278830872412
20
24.100832315719202
10
-8.1484416633737204
20
23.810918535432705
10
-7.7578529584026068
20
23.420329830461597
42
0.41421356237311341
0
LWPOLYLINE
5
120
100
AcDbEntity
8
0
100
AcDbPolyline
90
6
70
1
43
0.0
10
-3.9245126722186003
20
29.389132595829004
10
-3.9385883327005198
20
29.403208256310904
42
0.41421356237310425
10
-4.22143104517514
20
29.403208256310904
10
-4.6120197501462599
20
29.012619551339803
10
-4.3151013771897198
20
28.715701178383298
10
-3.9245126722185937
20
29.106289883354396
42
0.41421356237307433
0
LWPOLYLINE
5
121
100
AcDbEntity
8
0
100
AcDbPolyline
90
6
70
1
43
0.0
10
-5.8291314210818506
20
26.1302287777246
10
-5.4385427161107405
20
25.739640072753502
42
0.41421356237311341
10
-5.1557000036361202
20
25.739640072753502
10
-5.1486289358242576
20
25.746711140565395
42
0.41421356237307316
10
-5.1486289358242612
20
26.029553853039999
10
-5.5392176407953713
20
26.420142558011101
0
LWPOLYLINE
5
122
100
AcDbEntity
8
0
100
AcDbPolyline
90
6
70
1
43
0.0
10
-7.8010713332975801
20
32.2016711344911
10
-7.4104826283264602
20
32.592259839462201
42
0.41421356237317319
10
-7.4104826283264602
20
32.875102551936898
10
-7.4175536961383237
20
32.882173619748706
42
0.41421356237312495
10
-7.700396408612951
20
32.882173619748698
10
-8.0909851135840594
20
32.491584914777597
0
LWPOLYLINE
5
123
100
AcDbEntity
8
0
100
AcDbPolyline
90
6
70
1
43
0.0
10
-13.872513690064102
20
29.070076101129505
10
-14.263102395035201
20
29.460664806100603
42
0.41421356237309276
10
-14.545945107509802
20
29.460664806100603
10
-14.617477317781409
20
29.389132595829007
42
0.41421356237309276
10
-14.617477317781402
20
29.1062898833544
10
-14.226888612810299
20
28.715701178383298
0
LWPOLYLINE
5
124
100
AcDbEntity
8
0
100
AcDbPolyline
90
6
70
1
43
0.0
10
-6.89518268535502
20
24.000157391034605
10
-6.8881116175431512
20
24.007228458846505
42
0.41421356237306284
10
-6.88811161754316
20
24.290071171321102
10
-7.278700322514271
20
24.680659876292204
10
-7.5686141028007503
20
24.390746096005703
10
-7.1780253978296473
20
24.000157391034598
42
0.41421356237312495
0
LWPOLYLINE
5
125
100
AcDbEntity
8
0
100
AcDbPolyline
90
6
70
1
43
0.0
10
-4.51134482546163
20
29.975964749071998
10
-4.5184158932734899
20
29.983035816883898
42
0.41421356237312262
10
-4.8012586057481101
20
29.983035816883898
10
-5.1918473107192211
20
29.592447111912801
10
-4.9019335304327409
20
29.302533331626304
10
-4.5113448254616175
20
29.693122036597398
42
0.41421356237308293
0
LWPOLYLINE
5
126
100
AcDbEntity
8
0
100
AcDbPolyline
90
6
70
1
43
0.0
10
-6.4089589816548198
20
25.550401217151602
10
-6.0183702766836999
20
25.159812512180505
42
0.41421356237311113
10
-5.7355275642090913
20
25.159812512180505
10
-5.7284564963972127
20
25.166883579992398
42
0.41421356237306972
10
-5.7284564963972198
20
25.449726292467002
10
-6.1190452013683405
20
25.840314997438103
0
LWPOLYLINE
5
127
100
AcDbEntity
8
0
100
AcDbPolyline
90
6
70
1
43
0.0
10
-10.480147590829
20
33.526462322781398
10
-10.494223251310901
20
33.512386662299498
42
0.41421356237308588
10
-10.494223251310901
20
33.229543949824901
10
-10.1036345463398
20
32.8389552448538
10
-9.8067161733832702
20
33.135873617810304
10
-10.197304878354387
20
33.526462322781413
42
0.41421356237311113
0
LWPOLYLINE
5
128
100
AcDbEntity
8
0
100
AcDbPolyline
90
6
70
1
43
0.0
10
-7.2212437727246108
20
31.621843573918198
10
-6.8306550677534901
20
32.0124322788893
42
0.41421356237308243
10
-6.8306550677535007
20
32.295274991363897
10
-6.8377261355653527
20
32.302346059175704
42
0.4142135623730146
10
-7.1205688480399711
20
32.302346059175797
10
-7.511157553011091
20
31.9117573542046
0
LWPOLYLINE
5
129
100
AcDbEntity
8
0
100
AcDbPolyline
90
6
70
1
43
0.0
10
-13.2926861294911
20
29.649903661702403
10
-13.6832748344622
20
30.0404923666736
42
0.41421356237309503
10
-13.9661175469369
20
30.040492366673504
10
-13.973188614748711
20
30.033421298861711
42
0.41421356237309503
10
-13.973188614748702
20
29.7505785863871
10
-13.582599909777599
20
29.359989881415899
0
LWPOLYLINE
5
130
100
AcDbEntity
8
0
100
AcDbPolyline
90
6
70
1
43
0.0
10
-6.3153551247820507
20
24.579984951607603
10
-6.3082840569701908
20
24.5870560194194
42
0.41421356237306628
10
-6.3082840569701801
20
24.869898731894004
10
-6.6988727619413
20
25.260487436865201
10
-6.9887865422277908
20
24.970573656578701
10
-6.5981978372566843
20
24.579984951607599
42
0.41421356237312262
0
LWPOLYLINE
5
131
100
AcDbEntity
8
0
100
AcDbPolyline
90
6
70
1
43
0.0
10
-5.0911723860345903
20
30.555792309645003
10
-5.0982434538464609
20
30.5628633774569
42
0.41421356237289958
10
-5.3810861663210696
20
30.5628633774569
10
-5.7716748712921904
20
30.172274672485702
10
-5.4817610910057102
20
29.882360892199301
10
-5.0911723860345868
20
30.272949597170395
42
0.41421356237307777
0
LWPOLYLINE
5
132
100
AcDbEntity
8
0
100
AcDbPolyline
90
6
70
1
43
0.0
10
-11.066979744072
20
32.939630169538397
10
-11.0740508118839
20
32.932559101726497
42
0.41421356237309503
10
-11.0740508118839
20
32.6497163892519
10
-10.683462106912803
20
32.259127684280799
10
-10.3935483266263
20
32.549041464567303
10
-10.784137031597389
20
32.939630169538411
42
0.41421356237309964
0
LWPOLYLINE
5
133
100
AcDbEntity
8
0
100
AcDbPolyline
90
6
70
1
43
0.0
10
-6.6414162121516496
20
31.042016013345201
10
-6.2508275071805297
20
31.432604718316298
42
0.4142135623730766
10
-6.2508275071805297
20
31.715447430790903
10
-6.2578985749923906
20
31.722518498602813
42
0.41421356237310769
10
-6.5407412874670099
20
31.722518498602803
10
-6.93132999243812
20
31.331929793631701
0
LWPOLYLINE
5
134
100
AcDbEntity
8
0
100
AcDbPolyline
90
6
70
1
43
0.0
10
-12.712858568918202
20
30.229731222275404
10
-13.103447273889302
20
30.620319927246502
42
0.41421356237309276
10
-13.386289986363902
20
30.620319927246502
10
-13.39336105417571
20
30.613248859434613
42
0.41421356237299156
10
-13.3933610541758
20
30.330406146960005
10
-13.002772349204601
20
29.939817441988904
0
LWPOLYLINE
5
135
100
AcDbEntity
8
0
100
AcDbPolyline
90
6
70
1
43
0.0
10
-5.6709999466075605
20
31.135619870218001
10
-5.6780710144194204
20
31.142690938029801
42
0.41421356237311341
10
-5.9609137268940406
20
31.142690938029801
10
-6.3515024318651605
20
30.7521022330587
10
-6.0615886515786812
20
30.462188452772203
10
-5.6709999466075569
20
30.852777157743297
42
0.41421356237317897
0
LWPOLYLINE
5
136
100
AcDbEntity
8
0
100
AcDbPolyline
90
6
70
1
43
0.0
10
-11.646807304645
20
32.359802608965403
10
-11.653878372456902
20
32.352731541153602
42
0.41421356237299389
10
-11.653878372456902
20
32.069888828678899
10
-11.263289667485701
20
31.679300123707801
10
-10.9733758871993
20
31.969213903994302
10
-11.36396459217039
20
32.35980260896541
42
0.41421356237309276
0
LWPOLYLINE
5
137
100
AcDbEntity
8
0
100
AcDbPolyline
90
6
70
1
43
0.0
10
-12.133031008345201
20
30.809558782848399
10
-12.5236197133163
20
31.2001474878195
42
0.41421356237310192
10
-12.806462425790901
20
31.2001474878195
10
-12.813533493602812
20
31.193076420007614
42
0.41421356237310192
10
-12.813533493602801
20
30.910233707532999
10
-12.4229447886317
20
30.519645002561901
0
LWPOLYLINE
5
138
100
AcDbEntity
8
0
100
AcDbPolyline
90
6
70
1
43
0.0
10
-12.226634865217999
20
31.779975048392402
10
-12.233705933029801
20
31.772903980580605
42
0.41421356237309503
10
-12.233705933029801
20
31.490061268106004
10
-11.843117228058702
20
31.099472563134899
10
-11.5532034477722
20
31.389386343421304
10
-11.943792152743294
20
31.779975048392409
42
0.4142135623731939
0
LWPOLYLINE
5
139
100
AcDbEntity
8
0
100
AcDbPolyline
90
40
70
1
43
0.0
10
-4.86473067234121
20
23.060760923064901
10
-5.0768627066971703
20
23.272892957420904
42
0.41421356237301171
10
-5.6425481316464099
20
23.272892957420904
10
-5.7839694878837298
20
23.13147160118351
42
0.4142135623730715
10
-5.78396948788372
20
22.565786176234305
10
-5.5718374535277508
20
22.353654141878401
10
-5.7547011353585811
20
22.170790460047499
10
-5.9668331697145307
20
22.382922494403509
42
0.41421356237311863
10
-6.5325185946637809
20
22.382922494403502
10
-6.6739399509011008
20
22.241501138166207
42
0.41421356237312434
10
-6.673939950901091
20
21.675815713216902
10
-6.4618079165451299
20
21.463683678861003
10
-6.6446715983759397
20
21.280819997030203
10
-6.8568036327318946
20
21.49295203138611
42
0.41421356237311924
10
-7.4224890576811511
20
21.4929520313861
10
-7.563910413918463
20
21.351530675148815
42
0.41421356237308588
10
-7.5639104139184496
20
20.7858452501996
10
-7.3517783795624929
20
20.573713215843604
42
0.41421356237307433
10
-7.3517783795624903
20
20.290870503369
10
-6.6446715983758944
20
19.583763722182447
42
0.41421356237290885
10
-6.3618288859013203
20
19.5837637221824
10
-6.149696851545368
20
19.371631687826493
42
0.41421356237311402
10
-5.5840114265961196
20
19.3716316878265
10
-5.4425900703588015
20
19.513053044063792
42
0.4142135623730766
10
-5.4425900703588104
20
20.078738469013004
10
-5.6547221047147698
20
20.290870503369
10
-5.4718584228839608
20
20.473734185199799
10
-5.2597263885279544
20
20.261602150843835
42
0.41421356237301171
10
-4.6940409635787503
20
20.2616021508438
10
-4.5526196073414384
20
20.403023507081191
42
0.41421356237307294
10
-4.55261960734145
20
20.968708932030399
10
-4.7647516416974103
20
21.180840966386398
10
-4.5818879598665898
20
21.363704648217201
10
-4.3697559255106313
20
21.151572613861195
42
0.41421356237311863
10
-3.8040705005613806
20
21.151572613861202
10
-3.6626491443240634
20
21.29299397009849
42
0.41421356237312867
10
-3.6626491443240705
20
21.858679395047801
10
-3.8747811786800908
20
22.070811429403751
42
0.4142135623731692
10
-3.8747811786800499
20
22.353654141878401
10
-4.5818879598665863
20
23.060760923064905
42
0.41421356237311285
0
CIRCLE
5
140
100
AcDbEntity
8
0
100
AcDbCircle
10
-1.5239889900000003
20
6.6559809999999997
30
0
40
0.88899950000000305
210
0
220
0
230
1
0
CIRCLE
5
141
100
AcDbEntity
8
0
100
AcDbCircle
10
-1.5239889900000003
20
11.655981000000002
30
0
40
0.88899950000000305
210
0
220
0
230
1
0
CIRCLE
5
142
100
AcDbEntity
8
0
100
AcDbCircle
10
-1.5239889900000003
20
16.655981000000001
30
0
40
0.88899950000000305
210
0
220
0
230
1
0
CIRCLE
5
143
100
AcDbEntity
8
0
100
AcDbCircle
10
-1.5239889900000003
20
21.655981000000001
30
0
40
0.88899950000000305
210
0
220
0
230
1
0
CIRCLE
5
144
100
AcDbEntity
8
0
100
AcDbCircle
10
-1.5239889900000003
20
26.655981000000004
30
0
40
0.88899950000000305
210
0
220
0
230
1
0
CIRCLE
5
145
100
AcDbEntity
8
0
100
AcDbCircle
10
-1.5239889900000003
20
36.655980999999997
30
0
40
0.88899950000000305
210
0
220
0
230
1
0
CIRCLE
5
146
100
AcDbEntity
8
0
100
AcDbCircle
10
-1.5239889900000003
20
39.155980999999997
30
0
40
0.88899950000000305
210
0
220
0
230
1
0
CIRCLE
5
147
100
AcDbEntity
8
0
100
AcDbCircle
10
-1.5239889900000003
20
34.155980999999997
30
0
40
0.88899950000000305
210
0
220
0
230
1
0
CIRCLE
5
148
100
AcDbEntity
8
0
100
AcDbCircle
10
-1.5239889900000003
20
29.155981000000004
30
0
40
0.88899950000000305
210
0
220
0
230
1
0
CIRCLE
5
149
100
AcDbEntity
8
0
100
AcDbCircle
10
-1.5239889900000003
20
24.155981000000004
30
0
40
0.88899950000000305
210
0
220
0
230
1
0
CIRCLE
5
150
100
AcDbEntity
8
0
100
AcDbCircle
10
-1.5239889900000003
20
19.155981000000001
30
0
40
0.88899950000000305
210
0
220
0
230
1
0
CIRCLE
5
151
100
AcDbEntity
8
0
100
AcDbCircle
10
-1.5239889900000003
20
14.155981000000002
30
0
40
0.88899950000000305
210
0
220
0
230
1
0
CIRCLE
5
152
100
AcDbEntity
8
0
100
AcDbCircle
10
-1.5239889900000003
20
9.1559810000000006
30
0
40
0.88899950000000305
210
0
220
0
230
1
0
CIRCLE
5
153
100
AcDbEntity
8
0
100
AcDbCircle
10
-1.5239889900000003
20
4.1559809999999997
30
0
40
0.88899950000000305
210
0
220
0
230
1
0
CIRCLE
5
154
100
AcDbEntity
8
0
100
AcDbCircle
10
-17.017990990000001
20
6.6559809999999997
30
0
40
0.88899950000000305
210
0
220
0
230
1
0
CIRCLE
5
155
100
AcDbEntity
8
0
100
AcDbCircle
10
-17.017990990000001
20
11.655981000000002
30
0
40
0.88899950000000305
210
0
220
0
230
1
0
CIRCLE
5
156
100
AcDbEntity
8
0
100
AcDbCircle
10
-17.017990990000001
20
16.655981000000001
30
0
40
0.88899950000000305
210
0
220
0
230
1
0
CIRCLE
5
157
100
AcDbEntity
8
0
100
AcDbCircle
10
-17.017990990000001
20
21.655981000000001
30
0
40
0.88899950000000305
210
0
220
0
230
1
0
CIRCLE
5
158
100
AcDbEntity
8
0
100
AcDbCircle
10
-17.017990990000001
20
26.655981000000004
30
0
40
0.88899950000000305
210
0
220
0
230
1
0
CIRCLE
5
159
100
AcDbEntity
8
0
100
AcDbCircle
10
-17.017990990000001
20
31.655981000000004
30
0
40
0.88899950000000305
210
0
220
0
230
1
0
CIRCLE
5
160
100
AcDbEntity
8
0
100
AcDbCircle
10
-17.017990990000001
20
36.655980999999997
30
0
40
0.88899950000000305
210
0
220
0
230
1
0
CIRCLE
5
161
100
AcDbEntity
8
0
100
AcDbCircle
10
-17.017990990000001
20
39.155980999999997
30
0
40
0.88899950000000305
210
0
220
0
230
1
0
CIRCLE
5
162
100
AcDbEntity
8
0
100
AcDbCircle
10
-17.017990990000001
20
34.155980999999997
30
0
40
0.88899950000000305
210
0
220
0
230
1
0
CIRCLE
5
163
100
AcDbEntity
8
0
100
AcDbCircle
10
-17.017990990000001
20
29.155981000000004
30
0
40
0.88899950000000305
210
0
220
0
230
1
0
CIRCLE
5
164
100
AcDbEntity
8
0
100
AcDbCircle
10
-17.017990990000001
20
24.155981000000004
30
0
40
0.88899950000000305
210
0
220
0
230
1
0
CIRCLE
5
165
100
AcDbEntity
8
0
100
AcDbCircle
10
-17.017990990000001
20
19.155981000000001
30
0
40
0.88899950000000305
210
0
220
0
230
1
0
CIRCLE
5
166
100
AcDbEntity
8
0
100
AcDbCircle
10
-17.017990990000001
20
14.155981000000002
30
0
40
0.88899950000000305
210
0
220
0
230
1
0
CIRCLE
5
167
100
AcDbEntity
8
0
100
AcDbCircle
10
-17.017990990000001
20
9.1559810000000006
30
0
40
0.88899950000000305
210
0
220
0
230
1
0
CIRCLE
5
168
100
AcDbEntity
8
0
100
AcDbCircle
10
-17.017990990000001
20
4.1559809999999997
30
0
40
0.88899950000000305
210
0
220
0
230
1
0
CIRCLE
5
169
100
AcDbEntity
8
0
100
AcDbCircle
10
-7.2709949949999908
20
3.0016710291722188
30
0
40
0.5
210
0
220
0
230
1
0
LINE
5
170
100
AcDbEntity
8
0
100
AcDbLine
10
-7.2709949949999908
20
3.0016710291722188
30
0
11
-11.26897623334761
21
3.0000000000000004
31
0
0
CIRCLE
5
171
100
AcDbEntity
8
0
100
AcDbCircle
10
-11.270994995000001
20
1
30
0
40
0.12639320225001915
210
0
220
0
230
1
0
LINE
5
172
100
AcDbEntity
8
0
100
AcDbLine
10
-11.26897623334761
20
3.0000000000000004
30
0
11
-11.270994995000001
21
1
31
0
0
LINE
5
173
100
AcDbEntity
8
0
100
AcDbLine
10
-11.270994995000001
20
1
30
0
11
-7.2709949949999908
21
0.99596247669521709
31
0
0
LINE
5
174
100
AcDbEntity
8
0
100
AcDbLine
10
-7.2709949949999908
20
0.99596247669521709
30
0
11
-7.2709949949999908
21
3.0016710291722188
31
0
0
CIRCLE
5
175
100
AcDbEntity
8
0
100
AcDbCircle
10
-9.2709949950000023
20
3.0000000000000004
30
0
40
0.12639320225002026
210
0
220
0
230
1
0
LINE
5
176
100
AcDbEntity
8
0
100
AcDbLine
10
-9.2709949950000023
20
3.0000000000000004
30
0
11
-9.2709949949999952
21
0.99798123834760855
31
0
0
CIRCLE
5
177
100
AcDbEntity
8
0
100
AcDbCircle
10
-7.2709949949999908
20
0.99596247669521709
30
0
40
0.5
210
0
220
0
230
1
0
CIRCLE
5
178
100
AcDbEntity
8
0
100
AcDbCircle
10
-9.2709949949999952
20
0.99798123834760855
30
0
40
0.5
210
0
220
0
230
1
0
CIRCLE
5
179
100
AcDbEntity
8
0
100
AcDbCircle
10
-11.270994995000001
20
1
30
0
40
0.5
210
0
220
0
230
1
0
CIRCLE
5
180
100
AcDbEntity
8
0
100
AcDbCircle
10
-11.26897623334761
20
3.0000000000000004
30
0
40
0.5
210
0
220
0
230
1
0
CIRCLE
5
181
100
AcDbEntity
8
0
100
AcDbCircle
10
-9.2709949950000023
20
3.0000000000000004
30
0
40
0.5
210
0
220
0
230
1
0
CIRCLE
5
182
100
AcDbEntity
8
0
100
AcDbCircle
10
-1.5239889900000003
20
31.655981000000004
30
0
40
0.116378253981399
210
0
220
0
230
1
0
LINE
5
183
100
AcDbEntity
8
0
100
AcDbLine
10
-6.7709949950000006
20
0
30
0
11
-11.770994995000002
21
0
31
0
0
CIRCLE
5
184
100
AcDbEntity
8
0
100
AcDbCircle
10
-1.5239889900000003
20
4.1559809999999997
30
0
40
0.5
210
0
220
0
230
1
0
CIRCLE
5
185
100
AcDbEntity
8
0
100
AcDbCircle
10
-1.5239889900000003
20
6.6559809999999997
30
0
40
0.5
210
0
220
0
230
1
0
CIRCLE
5
186
100
AcDbEntity
8
0
100
AcDbCircle
10
-1.5239889900000003
20
9.1559810000000006
30
0
40
0.5
210
0
220
0
230
1
0
CIRCLE
5
187
100
AcDbEntity
8
0
100
AcDbCircle
10
-1.5239889900000003
20
11.655981000000002
30
0
40
0.5
210
0
220
0
230
1
0
CIRCLE
5
188
100
AcDbEntity
8
0
100
AcDbCircle
10
-1.5239889900000003
20
14.155981000000002
30
0
40
0.5
210
0
220
0
230
1
0
CIRCLE
5
189
100
AcDbEntity
8
0
100
AcDbCircle
10
-1.5239889900000003
20
16.655981000000001
30
0
40
0.5
210
0
220
0
230
1
0
CIRCLE
5
190
100
AcDbEntity
8
0
100
AcDbCircle
10
-1.5239889900000003
20
19.155981000000001
30
0
40
0.5
210
0
220
0
230
1
0
CIRCLE
5
191
100
AcDbEntity
8
0
100
AcDbCircle
10
-1.5239889900000003
20
21.655981000000001
30
0
40
0.5
210
0
220
0
230
1
0
CIRCLE
5
192
100
AcDbEntity
8
0
100
AcDbCircle
10
-1.5239889900000003
20
24.155981000000004
30
0
40
0.5
210
0
220
0
230
1
0
CIRCLE
5
193
100
AcDbEntity
8
0
100
AcDbCircle
10
-1.5239889900000003
20
26.655981000000004
30
0
40
0.5
210
0
220
0
230
1
0
CIRCLE
5
194
100
AcDbEntity
8
0
100
AcDbCircle
10
-1.5239889900000003
20
29.155981000000004
30
0
40
0.5
210
0
220
0
230
1
0
CIRCLE
5
195
100
AcDbEntity
8
0
100
AcDbCircle
10
-1.5239889900000003
20
34.155980999999997
30
0
40
0.5
210
0
220
0
230
1
0
CIRCLE
5
196
100
AcDbEntity
8
0
100
AcDbCircle
10
-1.5239889900000003
20
36.655980999999997
30
0
40
0.5
210
0
220
0
230
1
0
CIRCLE
5
197
100
AcDbEntity
8
0
100
AcDbCircle
10
-1.5239889900000003
20
39.155980999999997
30
0
40
0.5
210
0
220
0
230
1
0
CIRCLE
5
198
100
AcDbEntity
8
0
100
AcDbCircle
10
-17.017990990000001
20
39.155980999999997
30
0
40
0.5
210
0
220
0
230
1
0
CIRCLE
5
199
100
AcDbEntity
8
0
100
AcDbCircle
10
-17.017990990000001
20
36.655980999999997
30
0
40
0.5
210
0
220
0
230
1
0
CIRCLE
5
200
100
AcDbEntity
8
0
100
AcDbCircle
10
-17.017990990000001
20
34.155980999999997
30
0
40
0.5
210
0
220
0
230
1
0
CIRCLE
5
201
100
AcDbEntity
8
0
100
AcDbCircle
10
-17.017990990000001
20
31.655981000000004
30
0
40
0.5
210
0
220
0
230
1
0
CIRCLE
5
202
100
AcDbEntity
8
0
100
AcDbCircle
10
-17.017990990000001
20
29.155981000000004
30
0
40
0.5
210
0
220
0
230
1
0
CIRCLE
5
203
100
AcDbEntity
8
0
100
AcDbCircle
10
-17.017990990000001
20
26.655981000000004
30
0
40
0.5
210
0
220
0
230
1
0
CIRCLE
5
204
100
AcDbEntity
8
0
100
AcDbCircle
10
-17.017990990000001
20
24.155981000000004
30
0
40
0.5
210
0
220
0
230
1
0
CIRCLE
5
205
100
AcDbEntity
8
0
100
AcDbCircle
10
-17.017990990000001
20
21.655981000000001
30
0
40
0.5
210
0
220
0
230
1
0
CIRCLE
5
206
100
AcDbEntity
8
0
100
AcDbCircle
10
-17.017990990000001
20
19.155981000000001
30
0
40
0.5
210
0
220
0
230
1
0
CIRCLE
5
207
100
AcDbEntity
8
0
100
AcDbCircle
10
-17.017990990000001
20
16.655981000000001
30
0
40
0.5
210
0
220
0
230
1
0
CIRCLE
5
208
100
AcDbEntity
8
0
100
AcDbCircle
10
-17.017990990000001
20
14.155981000000002
30
0
40
0.5
210
0
220
0
230
1
0
CIRCLE
5
209
100
AcDbEntity
8
0
100
AcDbCircle
10
-17.017990990000001
20
11.655981000000002
30
0
40
0.5
210
0
220
0
230
1
0
CIRCLE
5
210
100
AcDbEntity
8
0
100
AcDbCircle
10
-17.017990990000001
20
9.1559810000000006
30
0
40
0.5
210
0
220
0
230
1
0
CIRCLE
5
211
100
AcDbEntity
8
0
100
AcDbCircle
10
-17.017990990000001
20
6.6559809999999997
30
0
40
0.5
210
0
220
0
230
1
0
CIRCLE
5
212
100
AcDbEntity
8
0
100
AcDbCircle
10
-17.017990990000001
20
4.1559809999999997
30
0
40
0.5
210
0
220
0
230
1
0
LWPOLYLINE
5
213
100
AcDbEntity
8
0
100
AcDbPolyline
90
4
70
1
43
0.0
10
0
20
0
10
-18.541989990000005
20
0
10
-18.541989990000005
20
43.17998
10
0
20
43.17998
0
LWPOLYLINE
5
214
100
AcDbEntity
8
0
100
AcDbPolyline
90
4
70
1
43
0.0
10
-11.770994995000002
20
13.968559595878798
10
-6.7709949950000006
20
13.968559595878798
10
-6.7709949950000006
20
18.069362081366261
10
-11.770994995000002
20
18.069362081366261
0
LWPOLYLINE
5
215
100
AcDbEntity
8
0
100
AcDbPolyline
90
4
70
1
43
0.0
10
-12.463527065257402
20
0
10
-6.0786484005761938
20
0
10
-6.0786484005761938
20
4.1999999999999975
10
-12.463527065257402
20
4.1999999999999975
0
CIRCLE
5
216
100
AcDbEntity
8
0
100
AcDbCircle
10
-1.5239889900000003
20
31.655981000000004
30
0
40
0.5
210
0
220
0
230
1
0
ENDSEC
0
SECTION
2
OBJECTS
0
DICTIONARY
5
C
100
AcDbDictionary
3
ACAD_GROUP
350
D
3
ACAD_MLINESTYLE
350
17
0
DICTIONARY
5
D
100
AcDbDictionary
0
DICTIONARY
5
1A
330
C
100
AcDbDictionary
0
DICTIONARY
5
17
100
AcDbDictionary
0
ENDSEC
0
EOF
