0
SECTION
2
HEADER
9
$INSUNITS
70
4
9
$ACADVER
1
AC1014
9
$HANDSEED
5
FFFF
0
ENDSEC
0
SECTION
2
TABLES
0
TABLE
2
VPORT
5
8
100
AcDbSymbolTable
0
ENDTAB
0
TABLE
2
LTYPE
5
5
100
AcDbSymbolTable
0
LTYPE
5
14
100
AcDbSymbolTableRecord
100
AcDbLinetypeTableRecord
2
BYBLOCK
70
0
0
LTYPE
5
15
100
AcDbSymbolTableRecord
100
AcDbLinetypeTableRecord
2
BYLAYER
70
0
0
ENDTAB
0
TABLE
2
LAYER
5
2
100
AcDbSymbolTable
70
2
0
LAYER
5
50
100
AcDbSymbolTableRecord
100
AcDbLayerTableRecord
2
0
70
0
6
CONTINUOUS
0
ENDTAB
0
TABLE
2
STYLE
5
3
100
AcDbSymbolTable
70
1
0
STYLE
5
11
100
AcDbSymbolTableRecord
100
AcDbTextStyleTableRecord
2
STANDARD
70
0
0
ENDTAB
0
TABLE
2
VIEW
5
6
100
AcDbSymbolTable
70
0
0
ENDTAB
0
TABLE
2
UCS
5
7
100
AcDbSymbolTable
70
0
0
ENDTAB
0
TABLE
2
APPID
5
9
100
AcDbSymbolTable
70
2
0
APPID
5
12
100
AcDbSymbolTableRecord
100
AcDbRegAppTableRecord
2
ACAD
70
0
0
ENDTAB
0
TABLE
2
DIMSTYLE
5
A
100
AcDbSymbolTable
70
1
0
ENDTAB
0
TABLE
2
BLOCK_RECORD
5
1
100
AcDbSymbolTable
70
1
0
BLOCK_RECORD
5
1F
100
AcDbSymbolTableRecord
100
AcDbBlockTableRecord
2
*MODEL_SPACE
0
BLOCK_RECORD
5
1B
100
AcDbSymbolTableRecord
100
AcDbBlockTableRecord
2
*PAPER_SPACE
0
ENDTAB
0
ENDSEC
0
SECTION
2
BLOCKS
0
BLOCK
5
20
100
AcDbEntity
100
AcDbBlockBegin
2
*MODEL_SPACE
0
ENDBLK
5
21
100
AcDbEntity
100
AcDbBlockEnd
0
BLOCK
5
1C
100
AcDbEntity
100
AcDbBlockBegin
2
*PAPER_SPACE
0
ENDBLK
5
1D
100
AcDbEntity
100
AcDbBlockEnd
0
ENDSEC
0
SECTION
2
ENTITIES
0
LINE
5
100
100
AcDbEntity
8
0
100
AcDbLine
10
-3.0239889899999941
20
-5.2559810000000091
30
-1.1102230246251565e-14
11
-3.0239889900000194
21
-21.705980999999976
31
2.2204460492503131e-15
0
LINE
5
101
100
AcDbEntity
8
0
100
AcDbLine
10
-2.0235723998617776
20
-9.1763872880229442
30
-8.8817841970012523e-15
11
-1.024405580138215
21
-9.1763872880229442
31
-8.8817841970012523e-15
0
LINE
5
102
100
AcDbEntity
8
0
100
AcDbLine
10
-1.5239889899999972
20
-9.6559810000000041
30
-6.6613381477509392e-15
11
-1.5239889899999957
21
-8.6559810000000077
31
-8.8817841970012523e-15
0
LINE
5
103
100
AcDbEntity
8
0
100
AcDbLine
10
-0.023988989999995731
20
-5.2559810000000144
30
-1.1102230246251565e-14
11
-1.5239889899999992
21
-5.2559810000000091
31
-1.1102230246251565e-14
0
CIRCLE
5
104
100
AcDbEntity
8
0
100
AcDbCircle
10
1.5239889900000168
20
-16.65598099999999
30
1.596797128649371e-14
40
0.49999999999999967
210
3.4833613566525465e-16
220
-8.5725275940314811e-16
230
-1
0
LINE
5
105
100
AcDbEntity
8
0
100
AcDbLine
10
-1.5239889900000096
20
-12.155981000000001
30
-4.4408920985006262e-15
11
-1.5239889899999994
21
-11.155980999999999
31
-6.6613381477509392e-15
0
CIRCLE
5
106
100
AcDbEntity
8
0
100
AcDbCircle
10
1.5239889900000003
20
-11.655981000000002
30
1.6122599587978612e-14
40
0.50000000000000011
210
3.4833613566525465e-16
220
-8.5725275940314811e-16
230
-1
0
LINE
5
107
100
AcDbEntity
8
0
100
AcDbLine
10
-2.0235723998617776
20
-9.1763872880229442
30
-8.8817841970012523e-15
11
-1.024405580138215
21
-9.1763872880229442
31
-8.8817841970012523e-15
0
LINE
5
108
100
AcDbEntity
8
0
100
AcDbLine
10
-0.023988989999995731
20
-5.2559810000000144
30
-1.1102230246251565e-14
11
-3.0239889899999941
21
-5.2559810000000091
31
-1.1102230246251565e-14
0
LINE
5
109
100
AcDbEntity
8
0
100
AcDbLine
10
-0.023988989999995731
20
-5.2559810000000144
30
-1.1102230246251565e-14
11
-1.5239889899999992
21
-5.2559810000000091
31
-1.1102230246251565e-14
0
LINE
5
110
100
AcDbEntity
8
0
100
AcDbLine
10
-1.5239889899999972
20
-9.6559810000000041
30
-6.6613381477509392e-15
11
-1.5239889899999957
21
-8.6559810000000077
31
-8.8817841970012523e-15
0
CIRCLE
5
111
100
AcDbEntity
8
0
100
AcDbCircle
10
1.5239889900000003
20
-11.655981000000002
30
1.6122599587978612e-14
40
0.50000000000000011
210
3.4833613566525465e-16
220
-8.5725275940314811e-16
230
-1
0
LINE
5
112
100
AcDbEntity
8
0
100
AcDbLine
10
-1.5239889900000096
20
-12.155981000000001
30
-4.4408920985006262e-15
11
-1.5239889899999994
21
-11.155980999999999
31
-6.6613381477509392e-15
0
LINE
5
113
100
AcDbEntity
8
0
100
AcDbLine
10
-0.023988990000020992
20
-21.705980999999987
30
2.2204460492503131e-15
11
-0.023988989999995731
21
-5.2559810000000144
31
-1.1102230246251565e-14
0
CIRCLE
5
114
100
AcDbEntity
8
0
100
AcDbCircle
10
1.5239889900000132
20
-14.155980999999995
30
1.6045285437236158e-14
40
0.50000000000000067
210
3.4833613566525465e-16
220
-8.5725275940314811e-16
230
-1
0
LINE
5
115
100
AcDbEntity
8
0
100
AcDbLine
10
-0.023988989999995731
20
-5.2559810000000144
30
-1.1102230246251565e-14
11
-3.0239889899999941
21
-5.2559810000000091
31
-1.1102230246251565e-14
0
CIRCLE
5
116
100
AcDbEntity
8
0
100
AcDbCircle
10
1.5239889899999963
20
-9.1559810000000112
30
1.6199913738721064e-14
40
0.50000000000000011
210
3.4833613566525465e-16
220
-8.5725275940314811e-16
230
-1
0
LINE
5
117
100
AcDbEntity
8
0
100
AcDbLine
10
-0.023988990000020992
20
-21.705980999999987
30
2.2204460492503131e-15
11
-0.023988989999995731
21
-5.2559810000000144
31
-1.1102230246251565e-14
0
CIRCLE
5
118
100
AcDbEntity
8
0
100
AcDbCircle
10
1.5239889900000132
20
-14.155980999999995
30
1.6045285437236158e-14
40
0.50000000000000067
210
3.4833613566525465e-16
220
-8.5725275940314811e-16
230
-1
0
LINE
5
119
100
AcDbEntity
8
0
100
AcDbLine
10
-37.723988989999967
20
-21.70598099999993
30
-8.8817841970012523e-15
11
-0.023988990000020992
21
-21.705980999999987
31
2.2204460492503131e-15
0
CIRCLE
5
120
100
AcDbEntity
8
0
100
AcDbCircle
10
1.5239889900000168
20
-16.65598099999999
30
1.596797128649371e-14
40
0.49999999999999967
210
3.4833613566525465e-16
220
-8.5725275940314811e-16
230
-1
0
CIRCLE
5
121
100
AcDbEntity
8
0
100
AcDbCircle
10
1.5239889899999963
20
-9.1559810000000112
30
1.6199913738721064e-14
40
0.50000000000000011
210
3.4833613566525465e-16
220
-8.5725275940314811e-16
230
-1
0
LINE
5
122
100
AcDbEntity
8
0
100
AcDbLine
10
-3.0239889899999941
20
-5.2559810000000091
30
-1.1102230246251565e-14
11
-3.0239889900000194
21
-21.705980999999976
31
2.2204460492503131e-15
0
LINE
5
123
100
AcDbEntity
8
0
100
AcDbLine
10
-37.723988989999967
20
-21.70598099999993
30
-8.8817841970012523e-15
11
-0.023988990000020992
21
-21.705980999999987
31
2.2204460492503131e-15
0
LINE
5
124
100
AcDbEntity
8
0
100
AcDbLine
10
-37.723988989999945
20
-5.2559810000000002
30
-1.1102230246251565e-14
11
-37.723988989999967
21
-21.70598099999993
31
-8.8817841970012523e-15
0
LINE
5
125
100
AcDbEntity
8
0
100
AcDbLine
10
-37.723988989999945
20
-5.2559810000000002
30
-1.1102230246251565e-14
11
-0.023988989999995731
21
-5.2559810000000144
31
-1.1102230246251565e-14
0
LINE
5
126
100
AcDbEntity
8
0
100
AcDbLine
10
-37.72398898999996
20
-13.480980999999968
30
-1.1102230246251565e-14
11
-3.0239889900000065
21
-13.480980999999995
31
-4.4408920985006262e-15
0
LINE
5
127
100
AcDbEntity
8
0
100
AcDbLine
10
-3.0199375367758523
20
-23.205980999999937
30
2.2204460492503131e-15
11
-38.403382388080225
21
-23.205980999999927
31
8.8817841970012523e-15
0
LINE
5
128
100
AcDbEntity
8
0
100
AcDbLine
10
-38.403382388080225
20
-23.205980999999927
30
8.8817841970012523e-15
11
-38.403382388080232
21
-3.7559810000000535
31
-2.4424906541753444e-14
0
LINE
5
129
100
AcDbEntity
8
0
100
AcDbLine
10
-38.403382388080232
20
-3.7559810000000535
30
-2.4424906541753444e-14
11
-3.0183248927895039
21
-3.7559810000000535
31
-1.1102230246251565e-14
0
LINE
5
130
100
AcDbEntity
8
0
100
AcDbLine
10
-3.0183248927895039
20
-3.7559810000000535
30
-1.1102230246251565e-14
11
0.10029869351866998
21
-3.7559810000000535
31
-1.5543122344752192e-14
0
LINE
5
131
100
AcDbEntity
8
0
100
AcDbLine
10
-0.023988989999995731
20
-5.2559810000000144
30
-1.1102230246251565e-14
11
-0.023988989999995731
21
-3.7559810000000535
31
-1.1102230246251565e-14
0
LINE
5
132
100
AcDbEntity
8
0
100
AcDbLine
10
-3.0239889899999941
20
-5.2559810000000091
30
-1.1102230246251565e-14
11
-3.0239889899999941
21
-3.7559810000000535
31
-1.1102230246251565e-14
0
LINE
5
133
100
AcDbEntity
8
0
100
AcDbLine
10
-3.0239889900000216
20
-21.70598099999998
30
2.2204460492503131e-15
11
-3.0239889900000194
21
-23.205980999999937
31
2.2204460492503131e-15
0
LINE
5
134
100
AcDbEntity
8
0
100
AcDbLine
10
-3.0239889900000194
20
-23.205980999999937
30
2.2204460492503131e-15
11
-0.023988990000018973
21
-23.205980999999937
31
2.2204460492503131e-15
0
LINE
5
135
100
AcDbEntity
8
0
100
AcDbLine
10
-0.023988990000018973
20
-21.705980999999987
30
2.2204460492503131e-15
11
-0.023988990000018973
21
-23.205980999999937
31
2.2204460492503131e-15
0
LWPOLYLINE
5
136
100
AcDbEntity
8
0
100
AcDbPolyline
90
4
70
1
43
0.0
10
20.251920770507631
20
28.992571403858314
10
20.251920770507631
20
-59.362801469188682
10
-39.748079229492369
20
-59.362801469188682
10
-39.748079229492369
20
28.992571403858314
0
ENDSEC
0
SECTION
2
OBJECTS
0
DICTIONARY
5
C
100
AcDbDictionary
3
ACAD_GROUP
350
D
3
ACAD_MLINESTYLE
350
17
0
DICTIONARY
5
D
100
AcDbDictionary
0
DICTIONARY
5
1A
330
C
100
AcDbDictionary
0
DICTIONARY
5
17
100
AcDbDictionary
0
ENDSEC
0
EOF
