0
SECTION
2
HEADER
9
$INSUNITS
70
4
9
$ACADVER
1
AC1014
9
$HANDSEED
5
FFFF
0
ENDSEC
0
SECTION
2
TABLES
0
TABLE
2
VPORT
5
8
100
AcDbSymbolTable
0
ENDTAB
0
TABLE
2
LTYPE
5
5
100
AcDbSymbolTable
0
LTYPE
5
14
100
AcDbSymbolTableRecord
100
AcDbLinetypeTableRecord
2
BYBLOCK
70
0
0
LTYPE
5
15
100
AcDbSymbolTableRecord
100
AcDbLinetypeTableRecord
2
BYLAYER
70
0
0
ENDTAB
0
TABLE
2
LAYER
5
2
100
AcDbSymbolTable
70
2
0
LAYER
5
50
100
AcDbSymbolTableRecord
100
AcDbLayerTableRecord
2
0
70
0
6
CONTINUOUS
0
ENDTAB
0
TABLE
2
STYLE
5
3
100
AcDbSymbolTable
70
1
0
STYLE
5
11
100
AcDbSymbolTableRecord
100
AcDbTextStyleTableRecord
2
STANDARD
70
0
0
ENDTAB
0
TABLE
2
VIEW
5
6
100
AcDbSymbolTable
70
0
0
ENDTAB
0
TABLE
2
UCS
5
7
100
AcDbSymbolTable
70
0
0
ENDTAB
0
TABLE
2
APPID
5
9
100
AcDbSymbolTable
70
2
0
APPID
5
12
100
AcDbSymbolTableRecord
100
AcDbRegAppTableRecord
2
ACAD
70
0
0
ENDTAB
0
TABLE
2
DIMSTYLE
5
A
100
AcDbSymbolTable
70
1
0
ENDTAB
0
TABLE
2
BLOCK_RECORD
5
1
100
AcDbSymbolTable
70
1
0
BLOCK_RECORD
5
1F
100
AcDbSymbolTableRecord
100
AcDbBlockTableRecord
2
*MODEL_SPACE
0
BLOCK_RECORD
5
1B
100
AcDbSymbolTableRecord
100
AcDbBlockTableRecord
2
*PAPER_SPACE
0
ENDTAB
0
ENDSEC
0
SECTION
2
BLOCKS
0
BLOCK
5
20
100
AcDbEntity
100
AcDbBlockBegin
2
*MODEL_SPACE
0
ENDBLK
5
21
100
AcDbEntity
100
AcDbBlockEnd
0
BLOCK
5
1C
100
AcDbEntity
100
AcDbBlockBegin
2
*PAPER_SPACE
0
ENDBLK
5
1D
100
AcDbEntity
100
AcDbBlockEnd
0
ENDSEC
0
SECTION
2
ENTITIES
0
LWPOLYLINE
5
100
100
AcDbEntity
8
0
100
AcDbPolyline
90
36
70
1
43
0.0
10
-18.541989990000005
20
43.17998
10
-18.541989990000005
20
0
10
-11.770994995000004
20
0
10
-6.7709949950000015
20
0
10
0
20
0
10
0
20
43.17998
10
-6.2709949949999997
20
43.17998
10
-6.2709949949999997
20
42.87998000000001
10
-4.7942974553183602
20
42.87998000000001
10
-4.59429745531836
20
42.67998
42
0.41421356237311291
10
-4.5942974553183582
20
42.079979999999999
10
-4.7942974553183602
20
41.879980000000003
42
0.41421356237307877
10
-6.2709949949999997
20
41.879980000000003
10
-6.2709949949999997
20
37.479979999999998
10
-4.7942974553183602
20
37.479979999999998
10
-4.59429745531836
20
37.279980000000002
42
0.41421356237310725
10
-4.59429745531836
20
36.67998
10
-4.7942974553183602
20
36.479980000000012
42
0.41421356237309825
10
-6.2709949949999997
20
36.479979999999998
10
-6.2709949949999997
20
36.17998
10
-12.270994995000004
20
36.17998
10
-12.270994995000004
20
36.479979999999998
10
-13.747692534681599
20
36.479980000000005
10
-13.9476925346816
20
36.67998
42
0.41421356237311779
10
-13.947692534681604
20
37.279980000000002
10
-13.747692534681599
20
37.479980000000012
42
0.41421356237309176
10
-12.270994995000004
20
37.479979999999998
10
-12.270994995000004
20
41.879980000000003
10
-13.747692534681599
20
41.879980000000003
10
-13.9476925346816
20
42.079979999999999
42
0.41421356237309825
10
-13.947692534681602
20
42.67998
10
-13.747692534681599
20
42.87998000000001
42
0.41421356237311779
10
-12.270994995000004
20
42.87998000000001
10
-12.270994995000004
20
43.17998
10
-18.541989990000005
20
43.17998
10
0
20
43.17998
0
CIRCLE
5
101
100
AcDbEntity
8
0
100
AcDbCircle
10
-1.5239889900000003
20
24.155981000000004
30
0
40
0.5
210
0
220
0
230
1
0
CIRCLE
5
102
100
AcDbEntity
8
0
100
AcDbCircle
10
-1.5239889900000003
20
24.155981000000004
30
0
40
0.88899950000000305
210
0
220
0
230
1
0
LINE
5
103
100
AcDbEntity
8
0
100
AcDbLine
10
-1.5239889900000003
20
21.655981000000001
30
0
11
-1.0239889900000003
21
21.655981000000001
31
0
0
LINE
5
104
100
AcDbEntity
8
0
100
AcDbLine
10
-1.5239889900000003
20
24.155981000000004
30
0
11
-1.0239889900000003
21
24.155981000000004
31
0
0
CIRCLE
5
105
100
AcDbEntity
8
0
100
AcDbCircle
10
-1.5239889900000003
20
16.655981000000001
30
0
40
0.5
210
0
220
0
230
1
0
LWPOLYLINE
5
106
100
AcDbEntity
8
0
100
AcDbPolyline
90
4
70
1
43
0.0
10
-12.463527065257402
20
0
10
-12.463527065257402
20
4.1999999999999975
10
-6.0786484005761938
20
4.1999999999999975
10
-6.0786484005761938
20
0
0
CIRCLE
5
107
100
AcDbEntity
8
0
100
AcDbCircle
10
-17.017990990000001
20
9.1559810000000006
30
0
40
0.88899950000000305
210
0
220
0
230
1
0
CIRCLE
5
108
100
AcDbEntity
8
0
100
AcDbCircle
10
-1.5239889900000003
20
11.655981000000002
30
0
40
0.5
210
0
220
0
230
1
0
CIRCLE
5
109
100
AcDbEntity
8
0
100
AcDbCircle
10
-17.017990990000001
20
31.655981000000004
30
0
40
0.88899950000000305
210
0
220
0
230
1
0
CIRCLE
5
110
100
AcDbEntity
8
0
100
AcDbCircle
10
-1.5239889900000003
20
9.1559810000000006
30
0
40
0.5
210
0
220
0
230
1
0
CIRCLE
5
111
100
AcDbEntity
8
0
100
AcDbCircle
10
-1.5239889900000003
20
14.155981000000004
30
0
40
0.5
210
0
220
0
230
1
0
LINE
5
112
100
AcDbEntity
8
0
100
AcDbLine
10
-16.517990990000001
20
19.155981000000001
30
0
11
-17.017990990000001
21
19.155981000000001
31
0
0
CIRCLE
5
113
100
AcDbEntity
8
0
100
AcDbCircle
10
-1.5239889900000003
20
16.655981000000001
30
0
40
0.88899950000000305
210
0
220
0
230
1
0
CIRCLE
5
114
100
AcDbEntity
8
0
100
AcDbCircle
10
-1.5239889900000003
20
14.155981000000004
30
0
40
0.88899950000000305
210
0
220
0
230
1
0
LINE
5
115
100
AcDbEntity
8
0
100
AcDbLine
10
-15.82899149
20
4.1999999999999957
30
0
11
-2.801443165555551
21
4.1999999999999993
31
0
0
LINE
5
116
100
AcDbEntity
8
0
100
AcDbLine
10
-7.7709917699005118
20
0.99652869037913838
30
0
11
-6.5109592949528761
21
0.99652869037913827
31
0
0
CIRCLE
5
117
100
AcDbEntity
8
0
100
AcDbCircle
10
-17.017990990000001
20
16.655981000000001
30
0
40
0.88899950000000305
210
0
220
0
230
1
0
CIRCLE
5
118
100
AcDbEntity
8
0
100
AcDbCircle
10
-17.017990990000001
20
11.655981000000002
30
0
40
0.5
210
0
220
0
230
1
0
LWPOLYLINE
5
119
100
AcDbEntity
8
0
100
AcDbPolyline
90
6
70
1
43
0.0
10
-12.813533493602804
20
30.910233707532999
42
-0.41421356237311341
10
-12.813533493602813
20
31.19307642000761
10
-12.806462425790903
20
31.2001474878195
42
-0.4142135623730836
10
-12.5236197133163
20
31.2001474878195
10
-12.133031008345201
20
30.809558782848399
10
-12.4229447886317
20
30.519645002561901
0
CIRCLE
5
120
100
AcDbEntity
8
0
100
AcDbCircle
10
-7.2709949949999908
20
3.0016710291722193
30
0
40
0.76000000000000012
210
0
220
0
230
1
0
CIRCLE
5
121
100
AcDbEntity
8
0
100
AcDbCircle
10
-9.2709949950000023
20
3.0000000000000004
30
0
40
0.76000000000000012
210
0
220
0
230
1
0
LWPOLYLINE
5
122
100
AcDbEntity
8
0
100
AcDbPolyline
90
6
70
1
43
0.0
10
-5.6709999466075587
20
31.135619870218001
42
-0.41421356237318696
10
-5.6709999466075569
20
30.852777157743301
10
-6.0615886515786821
20
30.462188452772203
10
-6.3515024318651614
20
30.7521022330587
10
-5.9609137268940406
20
31.142690938029798
42
-0.41421356237311341
10
-5.6780710144194204
20
31.142690938029798
0
CIRCLE
5
123
100
AcDbEntity
8
0
100
AcDbCircle
10
-1.5239889900000003
20
19.155981000000001
30
0
40
0.5
210
0
220
0
230
1
0
CIRCLE
5
124
100
AcDbEntity
8
0
100
AcDbCircle
10
-1.5239889900000003
20
9.1559810000000006
30
0
40
0.88899950000000305
210
0
220
0
230
1
0
CIRCLE
5
125
100
AcDbEntity
8
0
100
AcDbCircle
10
-17.017990990000001
20
14.155981000000004
30
0
40
0.88899950000000305
210
0
220
0
230
1
0
CIRCLE
5
126
100
AcDbEntity
8
0
100
AcDbCircle
10
-17.017990990000001
20
9.1559810000000006
30
0
40
0.5
210
0
220
0
230
1
0
LWPOLYLINE
5
127
100
AcDbEntity
8
0
100
AcDbPolyline
90
6
70
1
43
0.0
10
-12.284091415007609
20
24.637441501397195
10
-12.291162482819498
20
24.644512569209098
42
-0.41421356237310192
10
-12.291162482819512
20
24.927355281683717
10
-11.9005737778484
20
25.317943986654807
10
-11.6106599975619
20
25.0280302063683
10
-12.001248702532997
20
24.637441501397195
42
-0.41421356237308815
0
LINE
5
128
100
AcDbEntity
8
0
100
AcDbLine
10
-7.2709593316427137
20
0.23606719119676878
30
0
11
-7.2709593316427137
21
1.7560671911967281
31
0
0
CIRCLE
5
129
100
AcDbEntity
8
0
100
AcDbCircle
10
-17.017990990000001
20
11.655981000000002
30
0
40
0.88899950000000305
210
0
220
0
230
1
0
CIRCLE
5
130
100
AcDbEntity
8
0
100
AcDbCircle
10
-17.017990990000001
20
6.6559809999999997
30
0
40
0.88899950000000305
210
0
220
0
230
1
0
CIRCLE
5
131
100
AcDbEntity
8
0
100
AcDbCircle
10
-17.017990990000001
20
4.1559809999999997
30
0
40
0.5
210
0
220
0
230
1
0
CIRCLE
5
132
100
AcDbEntity
8
0
100
AcDbCircle
10
-17.017990990000001
20
19.155981000000001
30
0
40
0.5
210
0
220
0
230
1
0
CIRCLE
5
133
100
AcDbEntity
8
0
100
AcDbCircle
10
-17.017990990000001
20
14.155981000000004
30
0
40
0.5
210
0
220
0
230
1
0
LINE
5
134
100
AcDbEntity
8
0
100
AcDbLine
10
-17.017990990000001
20
12.155981000000002
30
0
11
-17.017990990000001
21
11.155981000000001
31
0
0
LWPOLYLINE
5
135
100
AcDbEntity
8
0
100
AcDbPolyline
90
4
70
1
43
0.0
10
-11.770994995000004
20
13.968559595878798
10
-11.770994995000004
20
18.069362081366261
10
-6.7709949950000015
20
18.069362081366261
10
-6.7709949950000015
20
13.968559595878798
0
LINE
5
136
100
AcDbEntity
8
0
100
AcDbLine
10
-1.5239889900000003
20
19.155981000000001
30
0
11
-1.0239889900000003
21
19.155981000000001
31
0
0
CIRCLE
5
137
100
AcDbEntity
8
0
100
AcDbCircle
10
-17.017990990000001
20
6.6559809999999997
30
0
40
0.5
210
0
220
0
230
1
0
CIRCLE
5
138
100
AcDbEntity
8
0
100
AcDbCircle
10
-1.5239889900000003
20
6.6559809999999997
30
0
40
0.88899950000000305
210
0
220
0
230
1
0
LINE
5
139
100
AcDbEntity
8
0
100
AcDbLine
10
-17.517990990000001
20
11.655981000000002
30
0
11
-16.517990990000001
21
11.655981000000002
31
0
0
CIRCLE
5
140
100
AcDbEntity
8
0
100
AcDbCircle
10
-1.5239889900000003
20
6.6559809999999997
30
0
40
0.5
210
0
220
0
230
1
0
LINE
5
141
100
AcDbEntity
8
0
100
AcDbLine
10
-12.019864318217035
20
1.0002026408818794
30
0
11
-10.499864318217638
21
1.0002026408818794
31
0
0
CIRCLE
5
142
100
AcDbEntity
8
0
100
AcDbCircle
10
-17.017990990000001
20
16.655981000000001
30
0
40
0.5
210
0
220
0
230
1
0
CIRCLE
5
143
100
AcDbEntity
8
0
100
AcDbCircle
10
-17.017990990000001
20
19.155981000000001
30
0
40
0.88899950000000305
210
0
220
0
230
1
0
LWPOLYLINE
5
144
100
AcDbEntity
8
0
100
AcDbPolyline
90
6
70
1
43
0.0
10
-8.0618423991710095
20
33.526462322781413
10
-7.9903101888994286
20
33.454930112509807
42
-0.41421356237306284
10
-7.9903101888994312
20
33.17208740003521
10
-8.3808988938705493
20
32.781498695064101
10
-8.7352738166167416
20
33.135873617810304
10
-8.3446851116456404
20
33.526462322781398
42
-0.41421356237313528
0
LINE
5
145
100
AcDbEntity
8
0
100
AcDbLine
10
-1.5239889900000003
20
36.655980999999997
30
0
11
-1.0239889900000003
21
36.655980999999997
31
0
0
LWPOLYLINE
5
146
100
AcDbEntity
8
0
100
AcDbPolyline
90
6
70
1
43
0.0
10
-6.8377261355653527
20
32.302346059175704
10
-6.8306550677535025
20
32.29527499136389
42
-0.41421356237307089
10
-6.8306550677534892
20
32.0124322788893
10
-7.2212437727246117
20
31.621843573918198
10
-7.5111575530110919
20
31.911757354204603
10
-7.1205688480399729
20
32.302346059175804
42
-0.41421356237300189
0
CIRCLE
5
147
100
AcDbEntity
8
0
100
AcDbCircle
10
-7.2709591548334593
20
0.99606719119674803
30
0
40
0.76000000000000012
210
0
220
0
230
1
0
CIRCLE
5
148
100
AcDbEntity
8
0
100
AcDbCircle
10
-1.5239889900000003
20
36.655980999999997
30
0
40
0.88899950000000305
210
0
220
0
230
1
0
CIRCLE
5
149
100
AcDbEntity
8
0
100
AcDbCircle
10
-1.5239889900000003
20
4.1559809999999997
30
0
40
0.5
210
0
220
0
230
1
0
LWPOLYLINE
5
150
100
AcDbEntity
8
0
100
AcDbPolyline
90
16
70
1
43
0.0
10
-9.5417056731186598
20
32.909269321881297
42
-0.19891236737967599
10
-9.4002843168813506
20
32.967847965644012
10
-9.1417056731186594
20
32.967847965644012
42
-0.19891236737963469
10
-9.0002843168813449
20
32.909269321881304
10
-4.5417056731186616
20
28.450690678118704
42
-0.19891236737976556
10
-4.4831270293559697
20
28.309269321881306
10
-4.4831270293559689
20
28.050690678118695
42
-0.19891236737966009
10
-4.5417056731186527
20
27.909269321881403
10
-9.0002843168813502
20
23.450690678118701
42
-0.19891236737964635
10
-9.1417056731186594
20
23.392112034355996
10
-9.4002843168813506
20
23.392112034355996
42
-0.19891236737964474
10
-9.5417056731186634
20
23.450690678118701
10
-14.0002843168814
20
27.909269321881411
42
-0.19891236737957524
10
-14.058862960644001
20
28.050690678118695
10
-14.058862960644001
20
28.309269321881306
42
-0.19891236737963422
10
-14.000284316881402
20
28.450690678118704
0
LWPOLYLINE
5
151
100
AcDbEntity
8
0
100
AcDbPolyline
90
6
70
1
43
0.0
10
-6.6414162121516496
20
31.042016013345197
10
-6.93132999243812
20
31.331929793631701
10
-6.5407412874670099
20
31.72251849860281
42
-0.41421356237312035
10
-6.2578985749923923
20
31.72251849860281
10
-6.2508275071805333
20
31.715447430790906
42
-0.41421356237305823
10
-6.2508275071805297
20
31.432604718316298
0
CIRCLE
5
152
100
AcDbEntity
8
0
100
AcDbCircle
10
-11.259864318217335
20
1.0002033166121269
30
0
40
0.76000000000000012
210
0
220
0
230
1
0
CIRCLE
5
153
100
AcDbEntity
8
0
100
AcDbCircle
10
-1.5239889900000003
20
39.155980999999997
30
0
40
0.88899950000000305
210
0
220
0
230
1
0
CIRCLE
5
154
100
AcDbEntity
8
0
100
AcDbCircle
10
-17.017990990000001
20
34.155980999999997
30
0
40
0.88899950000000305
210
0
220
0
230
1
0
CIRCLE
5
155
100
AcDbEntity
8
0
100
AcDbCircle
10
-1.5239889900000003
20
36.655980999999997
30
0
40
0.5
210
0
220
0
230
1
0
CIRCLE
5
156
100
AcDbEntity
8
0
100
AcDbCircle
10
-1.5239889900000012
20
4.1559810000000006
30
0
40
0.88899950000000305
210
0
220
0
230
1
0
LINE
5
157
100
AcDbEntity
8
0
100
AcDbLine
10
-17.517990990000001
20
6.6559809999999997
30
0
11
-16.517990990000001
21
6.6559809999999997
31
0
0
LWPOLYLINE
5
158
100
AcDbEntity
8
0
100
AcDbPolyline
90
6
70
1
43
0.0
10
-12.770315118707799
20
26.187685327514298
10
-13.160903823678902
20
25.797096622543201
42
-0.41421356237320311
10
-13.44374653615356
20
25.79709662254324
10
-13.450817603965399
20
25.804167690354998
42
-0.41421356237311807
10
-13.450817603965412
20
26.087010402829609
10
-13.060228898994303
20
26.477599107800707
0
CIRCLE
5
159
100
AcDbEntity
8
0
100
AcDbCircle
10
-1.5239889900000003
20
31.655981000000004
30
0
40
0.5
210
0
220
0
230
1
0
LWPOLYLINE
5
160
100
AcDbEntity
8
0
100
AcDbPolyline
90
6
70
1
43
0.0
10
-7.7003964086129519
20
32.882173619748698
42
-0.41421356237311224
10
-7.4175536961383237
20
32.882173619748713
10
-7.4104826283264611
20
32.875102551936891
42
-0.41421356237316403
10
-7.4104826283264611
20
32.592259839462201
10
-7.801071333297581
20
32.2016711344911
10
-8.0909851135840594
20
32.491584914777604
0
CIRCLE
5
161
100
AcDbEntity
8
0
100
AcDbCircle
10
-1.5239889900000003
20
34.155980999999997
30
0
40
0.5
210
0
220
0
230
1
0
LINE
5
162
100
AcDbEntity
8
0
100
AcDbLine
10
-1.5239889900000003
20
34.155980999999997
30
0
11
-1.0239889900000003
21
34.155980999999997
31
0
0
CIRCLE
5
163
100
AcDbEntity
8
0
100
AcDbCircle
10
-11.26897623334761
20
3.0000000000000004
30
0
40
0.76000000000000012
210
0
220
0
230
1
0
LINE
5
164
100
AcDbEntity
8
0
100
AcDbLine
10
-1.5239889900000003
20
39.155980999999997
30
0
11
-1.0239889900000003
21
39.155980999999997
31
0
0
LINE
5
165
100
AcDbEntity
8
0
100
AcDbLine
10
-17.017990990000001
20
37.155980999999997
30
0
11
-17.017990990000001
21
36.155981000000004
31
0
0
LWPOLYLINE
5
166
100
AcDbEntity
8
0
100
AcDbPolyline
90
6
70
1
43
0.0
10
-6.5981978372566852
20
24.579984951607603
10
-6.9887865422277917
20
24.970573656578701
10
-6.6988727619412991
20
25.260487436865201
10
-6.3082840569701828
20
24.869898731894004
42
-0.41421356237306173
10
-6.3082840569701917
20
24.5870560194194
10
-6.3153551247820516
20
24.579984951607603
42
-0.41421356237313645
0
LWPOLYLINE
5
167
100
AcDbEntity
8
0
100
AcDbPolyline
90
6
70
1
43
0.0
10
-8.7352738166167416
20
23.2240863821897
10
-8.4383554436602104
20
23.521004755146301
10
-8.0477667386890914
20
23.1304160501751
42
-0.41421356237307089
10
-8.0477667386890808
20
22.847573337700506
10
-8.0618423991710095
20
22.833497677218602
42
-0.41421356237310536
10
-8.3446851116456351
20
22.833497677218595
0
LWPOLYLINE
5
168
100
AcDbEntity
8
0
100
AcDbPolyline
90
6
70
1
43
0.0
10
-7.2787003225142719
20
24.680659876292204
10
-6.88811161754316
20
24.290071171321109
42
-0.41421356237307205
10
-6.8881116175431512
20
24.007228458846505
10
-6.8951826853550191
20
24.000157391034605
42
-0.41421356237311341
10
-7.1780253978296482
20
24.000157391034605
10
-7.5686141028007503
20
24.390746096005707
0
LWPOLYLINE
5
169
100
AcDbEntity
8
0
100
AcDbPolyline
90
6
70
1
43
0.0
10
-5.7284564963972207
20
25.449726292467002
42
-0.41421356237304907
10
-5.7284564963972127
20
25.166883579992398
10
-5.7355275642090913
20
25.159812512180508
42
-0.41421356237310997
10
-6.0183702766836999
20
25.159812512180508
10
-6.4089589816548198
20
25.550401217151606
10
-6.1190452013683405
20
25.840314997438107
0
LWPOLYLINE
5
170
100
AcDbEntity
8
0
100
AcDbPolyline
90
6
70
1
43
0.0
10
-5.1557000036361202
20
25.739640072753506
42
-0.41421356237312262
10
-5.4385427161107405
20
25.739640072753506
10
-5.8291314210818514
20
26.1302287777246
10
-5.5392176407953722
20
26.420142558011108
10
-5.1486289358242594
20
26.029553853040003
42
-0.41421356237309159
10
-5.1486289358242576
20
25.746711140565395
0
LWPOLYLINE
5
171
100
AcDbEntity
8
0
100
AcDbPolyline
90
6
70
1
43
0.0
10
-7.8585278830872429
20
24.100832315719202
10
-7.4679391781161204
20
23.710243610748101
42
-0.41421356237308815
10
-7.4679391781161204
20
23.4274008982735
10
-7.4750102459279901
20
23.420329830461601
42
-0.41421356237313295
10
-7.7578529584026077
20
23.420329830461601
10
-8.1484416633737204
20
23.810918535432705
0
LWPOLYLINE
5
172
100
AcDbEntity
8
0
100
AcDbPolyline
90
6
70
1
43
0.0
10
-4.22143104517514
20
29.403208256310908
42
-0.41421356237308588
10
-3.9385883327005198
20
29.403208256310908
10
-3.924512672218599
20
29.389132595829004
42
-0.41421356237306112
10
-3.9245126722185941
20
29.106289883354396
10
-4.3151013771897198
20
28.715701178383298
10
-4.6120197501462599
20
29.012619551339807
0
LWPOLYLINE
5
173
100
AcDbEntity
8
0
100
AcDbPolyline
90
6
70
1
43
0.0
10
-5.7716748712921904
20
30.172274672485706
10
-5.3810861663210696
20
30.5628633774569
42
-0.4142135623728801
10
-5.0982434538464618
20
30.5628633774569
10
-5.0911723860345894
20
30.555792309645007
42
-0.41421356237308471
10
-5.0911723860345868
20
30.272949597170395
10
-5.4817610910057102
20
29.882360892199301
0
LWPOLYLINE
5
174
100
AcDbEntity
8
0
100
AcDbPolyline
90
6
70
1
43
0.0
10
-3.9245126722186008
20
27.253670116645608
42
-0.41421356237309276
10
-3.9245126722185968
20
26.970827404171001
10
-3.99604488249018
20
26.899295193899402
42
-0.41421356237311341
10
-4.2788875949648002
20
26.899295193899402
10
-4.6694762999359201
20
27.289883898870499
10
-4.3151013771897198
20
27.644258821616706
0
LWPOLYLINE
5
175
100
AcDbEntity
8
0
100
AcDbPolyline
90
6
70
1
43
0.0
10
-4.5688013752512875
20
26.609381413613001
42
-0.41421356237315132
10
-4.5688013752512804
20
26.326538701138308
10
-4.5758724430631501
20
26.3194676333265
42
-0.41421356237313067
10
-4.8587151555377694
20
26.3194676333265
10
-5.2493038605088804
20
26.710056338297608
10
-4.9593900802224002
20
26.999970118584105
0
LWPOLYLINE
5
176
100
AcDbEntity
8
0
100
AcDbPolyline
90
6
70
1
43
0.0
10
-4.5113448254616308
20
29.975964749071998
42
-0.41421356237308471
10
-4.5113448254616175
20
29.693122036597401
10
-4.9019335304327409
20
29.302533331626307
10
-5.1918473107192211
20
29.592447111912801
10
-4.8012586057481101
20
29.983035816883895
42
-0.41421356237312262
10
-4.5184158932734899
20
29.983035816883895
0
LINE
5
177
100
AcDbEntity
8
0
100
AcDbLine
10
-1.5239889900000003
20
29.155981000000004
30
0
11
-1.0239889900000003
21
29.155981000000004
31
0
0
CIRCLE
5
178
100
AcDbEntity
8
0
100
AcDbCircle
10
-1.5239889900000003
20
29.155981000000004
30
0
40
0.88899950000000305
210
0
220
0
230
1
0
CIRCLE
5
179
100
AcDbEntity
8
0
100
AcDbCircle
10
-1.5239889900000003
20
29.155981000000004
30
0
40
0.5
210
0
220
0
230
1
0
CIRCLE
5
180
100
AcDbEntity
8
0
100
AcDbCircle
10
-1.5239889900000003
20
26.655981000000004
30
0
40
0.5
210
0
220
0
230
1
0
LINE
5
181
100
AcDbEntity
8
0
100
AcDbLine
10
-1.5239889900000003
20
26.655981000000004
30
0
11
-1.0239889900000003
21
26.655981000000004
31
0
0
CIRCLE
5
182
100
AcDbEntity
8
0
100
AcDbCircle
10
-1.5239889900000003
20
26.655981000000004
30
0
40
0.88899950000000305
210
0
220
0
230
1
0
LWPOLYLINE
5
183
100
AcDbEntity
8
0
100
AcDbPolyline
90
6
70
1
43
0.0
10
-11.653878372456903
20
32.352731541153602
10
-11.646807304645002
20
32.35980260896541
42
-0.41421356237310192
10
-11.36396459217039
20
32.35980260896541
10
-10.973375887199301
20
31.969213903994302
10
-11.263289667485699
20
31.679300123707801
10
-11.653878372456902
20
32.069888828678891
42
-0.41421356237298468
0
LWPOLYLINE
5
184
100
AcDbEntity
8
0
100
AcDbPolyline
90
6
70
1
43
0.0
10
-14.030645164538413
20
26.666837963402614
10
-13.640056459567303
20
27.057426668373701
10
-13.3501426792808
20
26.767512888087204
10
-13.740731384251902
20
26.376924183116106
42
-0.41421356237310425
10
-14.023574096726501
20
26.376924183116106
10
-14.030645164538404
20
26.383995250928002
42
-0.41421356237309737
0
CIRCLE
5
185
100
AcDbEntity
8
0
100
AcDbCircle
10
-17.017990990000001
20
29.155981000000004
30
0
40
0.88899950000000305
210
0
220
0
230
1
0
LWPOLYLINE
5
186
100
AcDbEntity
8
0
100
AcDbPolyline
90
6
70
1
43
0.0
10
-14.617477317781404
20
26.970827404171001
42
-0.41421356237309043
10
-14.617477317781413
20
27.253670116645612
10
-14.226888612810303
20
27.644258821616706
10
-13.929970239853802
20
27.347340448660198
10
-14.320558944824901
20
26.956751743689104
42
-0.41421356237308588
10
-14.603401657299502
20
26.956751743689104
0
LWPOLYLINE
5
187
100
AcDbEntity
8
0
100
AcDbPolyline
90
6
70
1
43
0.0
10
-11.5532034477722
20
31.389386343421307
10
-11.843117228058704
20
31.099472563134896
10
-12.233705933029801
20
31.490061268106007
42
-0.41421356237309043
10
-12.233705933029801
20
31.772903980580608
10
-12.226634865218003
20
31.779975048392402
42
-0.41421356237321461
10
-11.943792152743294
20
31.779975048392409
0
LWPOLYLINE
5
188
100
AcDbEntity
8
0
100
AcDbPolyline
90
6
70
1
43
0.0
10
-12.190487558134901
20
25.607857766941304
10
-12.581076263106004
20
25.217269061970207
42
-0.41421356237309737
10
-12.863918975580599
20
25.217269061970207
10
-12.870990043392503
20
25.224340129782004
42
-0.41421356237299384
10
-12.870990043392458
20
25.507182842256668
10
-12.480401338421302
20
25.897771547227801
0
CIRCLE
5
189
100
AcDbEntity
8
0
100
AcDbCircle
10
-17.017990990000001
20
24.155981000000004
30
0
40
0.5
210
0
220
0
230
1
0
LWPOLYLINE
5
190
100
AcDbEntity
8
0
100
AcDbPolyline
90
6
70
1
43
0.0
10
-13.582599909777603
20
29.359989881415895
10
-13.9731886147487
20
29.750578586387103
42
-0.41421356237309737
10
-13.973188614748715
20
30.033421298861711
10
-13.9661175469369
20
30.040492366673508
42
-0.41421356237309503
10
-13.6832748344622
20
30.040492366673604
10
-13.2926861294911
20
29.649903661702407
0
LWPOLYLINE
5
191
100
AcDbEntity
8
0
100
AcDbPolyline
90
6
70
1
43
0.0
10
-14.545945107509803
20
29.460664806100606
42
-0.4142135623730766
10
-14.263102395035201
20
29.460664806100606
10
-13.872513690064103
20
29.070076101129505
10
-14.226888612810303
20
28.715701178383298
10
-14.617477317781407
20
29.106289883354396
42
-0.41421356237306745
10
-14.617477317781409
20
29.389132595829011
0
CIRCLE
5
192
100
AcDbEntity
8
0
100
AcDbCircle
10
-17.017990990000001
20
24.155981000000004
30
0
40
0.88899950000000305
210
0
220
0
230
1
0
LWPOLYLINE
5
193
100
AcDbEntity
8
0
100
AcDbPolyline
90
6
70
1
43
0.0
10
-13.393361054175712
20
30.613248859434613
10
-13.386289986363906
20
30.620319927246502
42
-0.41421356237309276
10
-13.103447273889303
20
30.620319927246502
10
-12.712858568918204
20
30.229731222275404
10
-13.002772349204601
20
29.939817441988907
10
-13.393361054175799
20
30.330406146960005
42
-0.41421356237297552
0
LWPOLYLINE
5
194
100
AcDbEntity
8
0
100
AcDbPolyline
90
6
70
1
43
0.0
10
-11.074050811883895
20
32.6497163892519
42
-0.41421356237310192
10
-11.0740508118839
20
32.932559101726497
10
-11.066979744072004
20
32.939630169538397
42
-0.41421356237308588
10
-10.784137031597387
20
32.939630169538411
10
-10.3935483266263
20
32.549041464567303
10
-10.683462106912804
20
32.259127684280799
0
LWPOLYLINE
5
195
100
AcDbEntity
8
0
100
AcDbPolyline
90
6
70
1
43
0.0
10
-10.480147590829002
20
33.526462322781406
42
-0.41421356237309737
10
-10.197304878354387
20
33.526462322781413
10
-9.8067161733832702
20
33.135873617810304
10
-10.1036345463398
20
32.8389552448538
10
-10.494223251310901
20
33.229543949824901
42
-0.41421356237308588
10
-10.494223251310901
20
33.512386662299498
0
LINE
5
196
100
AcDbEntity
8
0
100
AcDbLine
10
-16.517990990000001
20
24.155981000000004
30
0
11
-17.017990990000001
21
24.155981000000004
31
0
0
CIRCLE
5
197
100
AcDbEntity
8
0
100
AcDbCircle
10
-17.017990990000001
20
29.155981000000004
30
0
40
0.5
210
0
220
0
230
1
0
CIRCLE
5
198
100
AcDbEntity
8
0
100
AcDbCircle
10
-17.017990990000001
20
31.655981000000004
30
0
40
0.5
210
0
220
0
230
1
0
CIRCLE
5
199
100
AcDbEntity
8
0
100
AcDbCircle
10
-17.017990990000001
20
26.655981000000004
30
0
40
0.5
210
0
220
0
230
1
0
LINE
5
200
100
AcDbEntity
8
0
100
AcDbLine
10
-16.517990990000001
20
29.155981000000004
30
0
11
-17.017990990000001
21
29.155981000000004
31
0
0
LINE
5
201
100
AcDbEntity
8
0
100
AcDbLine
10
-16.517990990000001
20
21.655981000000001
30
0
11
-17.017990990000001
21
21.655981000000001
31
0
0
CIRCLE
5
202
100
AcDbEntity
8
0
100
AcDbCircle
10
-17.017990990000001
20
39.155980999999997
30
0
40
0.5
210
0
220
0
230
1
0
CIRCLE
5
203
100
AcDbEntity
8
0
100
AcDbCircle
10
-17.017990990000001
20
36.655980999999997
30
0
40
0.88899950000000305
210
0
220
0
230
1
0
LINE
5
204
100
AcDbEntity
8
0
100
AcDbLine
10
-1.5239889900000003
20
31.655981000000004
30
0
11
-1.0239889900000003
21
31.655981000000004
31
0
0
CIRCLE
5
205
100
AcDbEntity
8
0
100
AcDbCircle
10
-1.5239889900000003
20
34.155980999999997
30
0
40
0.97369309216618638
210
0
220
0
230
1
0
CIRCLE
5
206
100
AcDbEntity
8
0
100
AcDbCircle
10
-17.017990990000001
20
39.155980999999997
30
0
40
0.88899950000000305
210
0
220
0
230
1
0
CIRCLE
5
207
100
AcDbEntity
8
0
100
AcDbCircle
10
-17.017990990000001
20
26.655981000000004
30
0
40
0.88899950000000305
210
0
220
0
230
1
0
CIRCLE
5
208
100
AcDbEntity
8
0
100
AcDbCircle
10
-17.017990990000001
20
36.655980999999997
30
0
40
0.5
210
0
220
0
230
1
0
CIRCLE
5
209
100
AcDbEntity
8
0
100
AcDbCircle
10
-17.017990990000001
20
34.155980999999997
30
0
40
0.5
210
0
220
0
230
1
0
CIRCLE
5
210
100
AcDbEntity
8
0
100
AcDbCircle
10
-1.5239889900000003
20
39.155980999999997
30
0
40
0.5
210
0
220
0
230
1
0
LINE
5
211
100
AcDbEntity
8
0
100
AcDbLine
10
-17.517990990000001
20
36.655980999999997
30
0
11
-16.517990990000001
21
36.655980999999997
31
0
0
LINE
5
212
100
AcDbEntity
8
0
100
AcDbLine
10
-16.517990990000001
20
26.655981000000004
30
0
11
-17.017990990000001
21
26.655981000000004
31
0
0
LWPOLYLINE
5
213
100
AcDbEntity
8
0
100
AcDbPolyline
90
6
70
1
43
0.0
10
-10.841593581387103
20
23.477786380251299
42
-0.41421356237308588
10
-11.124436293861706
20
23.477786380251292
10
-11.1315073616736
20
23.484857448063106
42
-0.41421356237301232
10
-11.13150736167356
20
23.767700160537764
10
-10.740918656702403
20
24.158288865508908
10
-10.451004876416
20
23.868375085222407
0
LINE
5
214
100
AcDbEntity
8
0
100
AcDbLine
10
0
20
43.17998
30
0
11
0
21
0
31
0
0
LWPOLYLINE
5
215
100
AcDbEntity
8
0
100
AcDbPolyline
90
6
70
1
43
0.0
10
-11.0308324369889
20
24.448202645795408
10
-11.42142114196
20
24.057613940824307
42
-0.41421356237319623
10
-11.7042638544347
20
24.057613940824307
10
-11.711334922246499
20
24.064685008636111
42
-0.41421356237309043
10
-11.711334922246513
20
24.347527721110716
10
-11.320746217275401
20
24.738116426081799
0
CIRCLE
5
216
100
AcDbEntity
8
0
100
AcDbCircle
10
-17.017990990000001
20
21.655981000000001
30
0
40
0.88899950000000305
210
0
220
0
230
1
0
LWPOLYLINE
5
217
100
AcDbEntity
8
0
100
AcDbPolyline
90
6
70
1
43
0.0
10
-10.551679801100613
20
23.187872599964813
10
-10.1610910961295
20
23.5784613049359
10
-9.8067161733832702
20
23.2240863821897
10
-10.197304878354403
20
22.833497677218602
42
-0.41421356237310192
10
-10.480147590829008
20
22.833497677218588
10
-10.551679801100599
20
22.905029887490194
42
-0.41421356237310653
0
CIRCLE
5
218
100
AcDbEntity
8
0
100
AcDbCircle
10
-17.017990990000001
20
21.655981000000001
30
0
40
0.5
210
0
220
0
230
1
0
CIRCLE
5
219
100
AcDbEntity
8
0
100
AcDbCircle
10
-1.5239889900000003
20
21.655981000000001
30
0
40
0.5
210
0
220
0
230
1
0
LINE
5
220
100
AcDbEntity
8
0
100
AcDbLine
10
-18.541989990000005
20
0
30
0
11
-18.541989990000005
21
43.17998
31
0
0
LINE
5
221
100
AcDbEntity
8
0
100
AcDbLine
10
-2.801443165555551
20
4.1999999999999993
30
0
11
-2.8014431655555057
21
43.17998
31
0
0
CIRCLE
5
222
100
AcDbEntity
8
0
100
AcDbCircle
10
-1.5239889900000003
20
21.655981000000001
30
0
40
0.88899950000000305
210
0
220
0
230
1
0
LINE
5
223
100
AcDbEntity
8
0
100
AcDbLine
10
-15.82899149
20
4.1999999999999957
30
0
11
-15.828991489999996
21
43.17998
31
0
0
LINE
5
224
100
AcDbEntity
8
0
100
AcDbLine
10
-16.517990990000001
20
16.655981000000001
30
0
11
-17.017990990000001
21
16.655981000000001
31
0
0
CIRCLE
5
225
100
AcDbEntity
8
0
100
AcDbCircle
10
-1.5239889900000003
20
19.155981000000001
30
0
40
0.88899950000000305
210
0
220
0
230
1
0
LINE
5
226
100
AcDbEntity
8
0
100
AcDbLine
10
-2.0239889900000003
20
11.655981000000002
30
0
11
-1.0239889900000003
21
11.655981000000002
31
0
0
CIRCLE
5
227
100
AcDbEntity
8
0
100
AcDbCircle
10
-1.5239889900000003
20
31.655981000000004
30
0
40
0.97369309216618638
210
0
220
0
230
1
0
CIRCLE
5
228
100
AcDbEntity
8
0
100
AcDbCircle
10
-9.270994994999997
20
0.99798123834760843
30
0
40
0.76000000000000012
210
0
220
0
230
1
0
LINE
5
229
100
AcDbEntity
8
0
100
AcDbLine
10
-16.517990990000001
20
14.155981000000004
30
0
11
-17.017990990000001
21
14.155981000000004
31
0
0
CIRCLE
5
230
100
AcDbEntity
8
0
100
AcDbCircle
10
-1.5239889900000003
20
11.655981000000002
30
0
40
0.88899950000000305
210
0
220
0
230
1
0
CIRCLE
5
231
100
AcDbEntity
8
0
100
AcDbCircle
10
-17.017990990000001
20
4.1559809999999997
30
0
40
0.88899950000000283
210
0
220
0
230
1
0
ENDSEC
0
SECTION
2
OBJECTS
0
DICTIONARY
5
C
100
AcDbDictionary
3
ACAD_GROUP
350
D
3
ACAD_MLINESTYLE
350
17
0
DICTIONARY
5
D
100
AcDbDictionary
0
DICTIONARY
5
1A
330
C
100
AcDbDictionary
0
DICTIONARY
5
17
100
AcDbDictionary
0
ENDSEC
0
EOF
